<svg width="30" height="30" viewBox="0 0 30 30" fill="none" xmlns="http://www.w3.org/2000/svg">
<path d="M5.83333 17.5H17.5V14.5833H5.83333V17.5ZM5.83333 13.125H23.3333V10.2083H5.83333V13.125ZM5.83333 8.75H23.3333V5.83333H5.83333V8.75ZM0 29.1667V2.91667C0 2.11458 0.28559 1.42795 0.856771 0.856771C1.42795 0.28559 2.11458 0 2.91667 0H26.25C27.0521 0 27.7387 0.28559 28.3099 0.856771C28.8811 1.42795 29.1667 2.11458 29.1667 2.91667V20.4167C29.1667 21.2187 28.8811 21.9054 28.3099 22.4766C27.7387 23.0477 27.0521 23.3333 26.25 23.3333H5.83333L0 29.1667ZM4.59375 20.4167H26.25V2.91667H2.91667V22.0573L4.59375 20.4167Z" fill="#1C1B1F"/>
</svg>
