<?xml version="1.0" standalone="no"?>
<!DOCTYPE svg PUBLIC "-//W3C//DTD SVG 20010904//EN"
 "http://www.w3.org/TR/2001/REC-SVG-20010904/DTD/svg10.dtd">
<svg version="1.0" xmlns="http://www.w3.org/2000/svg"
 width="512.000000pt" height="512.000000pt" viewBox="0 0 512.000000 512.000000"
 preserveAspectRatio="xMidYMid meet">

<g transform="translate(0.000000,512.000000) scale(0.100000,-0.100000)"
fill="#000000" stroke="none">
<path d="M2315 4254 c-609 -63 -1132 -275 -1595 -647 -170 -137 -446 -434
-535 -577 -140 -223 -154 -534 -36 -784 93 -198 382 -510 675 -730 844 -635
1979 -754 2946 -311 322 148 591 336 846 590 323 322 435 529 435 805 0 271
-102 466 -409 782 -447 460 -1011 750 -1652 849 -103 16 -194 22 -385 24 -137
2 -268 1 -290 -1z m645 -443 c150 -26 331 -74 450 -117 233 -86 518 -248 720
-410 186 -150 407 -394 464 -514 29 -60 31 -73 31 -170 0 -97 -2 -110 -31
-170 -41 -86 -140 -208 -288 -355 -187 -185 -374 -322 -606 -443 -475 -248
-1020 -332 -1560 -241 -401 67 -813 254 -1140 514 -113 90 -320 301 -397 403
-96 127 -107 157 -108 287 0 104 2 113 33 177 43 87 139 206 287 353 372 370
870 621 1369 690 61 8 125 17 141 19 17 2 140 3 275 1 192 -2 270 -8 360 -24z"/>
<path d="M2490 3534 c-251 -29 -458 -128 -616 -295 -238 -254 -313 -627 -193
-959 171 -468 671 -719 1149 -574 430 131 708 546 660 987 -51 462 -418 815
-875 840 -49 2 -106 3 -125 1z m498 -426 c26 -12 55 -37 75 -66 89 -130 -9
-315 -166 -315 -83 0 -170 56 -196 126 -17 45 -13 124 8 166 24 46 82 99 119
107 15 3 32 7 37 9 19 7 80 -6 123 -27z"/>
</g>
</svg>
