<?xml version="1.0" standalone="no"?>
<!DOCTYPE svg PUBLIC "-//W3C//DTD SVG 20010904//EN"
 "http://www.w3.org/TR/2001/REC-SVG-20010904/DTD/svg10.dtd">
<svg version="1.0" xmlns="http://www.w3.org/2000/svg"
 width="24.000000pt" height="24.000000pt" viewBox="0 0 24.000000 24.000000"
 preserveAspectRatio="xMidYMid meet">

<g transform="translate(0.000000,24.000000) scale(0.100000,-0.100000)"
fill="#000000" stroke="none">
<path d="M30 170 l0 -40 40 0 40 0 0 40 0 40 -40 0 -40 0 0 -40z m60 -5 c0
-18 -5 -25 -20 -25 -15 0 -20 7 -20 25 0 18 5 25 20 25 15 0 20 -7 20 -25z"/>
<path d="M130 170 l0 -40 40 0 40 0 0 40 0 40 -40 0 -40 0 0 -40z m60 -5 c0
-18 -5 -25 -20 -25 -15 0 -20 7 -20 25 0 18 5 25 20 25 15 0 20 -7 20 -25z"/>
<path d="M30 70 l0 -40 40 0 40 0 0 40 0 40 -40 0 -40 0 0 -40z m60 -5 c0 -18
-5 -25 -20 -25 -15 0 -20 7 -20 25 0 18 5 25 20 25 15 0 20 -7 20 -25z"/>
<path d="M130 101 c0 -5 6 -12 13 -14 9 -4 9 -8 -2 -15 -12 -9 -12 -13 3 -28
15 -14 19 -15 27 -3 8 12 10 12 18 -1 6 -8 13 -11 18 -7 4 5 1 12 -7 18 -13 8
-13 10 -1 18 12 8 11 12 -3 27 -15 15 -19 15 -28 3 -7 -11 -11 -11 -15 -1 -5
14 -23 16 -23 3z m60 -17 c0 -3 -7 -12 -15 -21 -20 -19 -32 -10 -14 11 14 15
29 21 29 10z"/>
</g>
</svg>
