<?xml version="1.0" standalone="no"?>
<!DOCTYPE svg PUBLIC "-//W3C//DTD SVG 20010904//EN"
 "http://www.w3.org/TR/2001/REC-SVG-20010904/DTD/svg10.dtd">
<svg version="1.0" xmlns="http://www.w3.org/2000/svg"
 width="50.000000pt" height="50.000000pt" viewBox="0 0 50.000000 50.000000"
 preserveAspectRatio="xMidYMid meet">

<g transform="translate(0.000000,50.000000) scale(0.100000,-0.100000)"
fill="#000000" stroke="none">
<path d="M170 485 c-7 -8 -20 -15 -29 -15 -10 0 -27 -10 -39 -23 -21 -22 -22
-33 -22 -187 0 -138 3 -166 17 -182 15 -17 15 -20 -7 -43 -32 -34 -16 -45 18
-12 27 26 32 27 142 27 110 0 115 -1 142 -27 34 -33 50 -22 18 12 -22 23 -22
26 -7 43 14 16 17 44 17 184 0 159 -1 165 -23 186 -13 12 -30 22 -39 22 -9 0
-21 7 -28 15 -7 8 -18 15 -25 15 -7 0 -18 -7 -25 -15 -7 -8 -20 -15 -30 -15
-10 0 -23 7 -30 15 -7 8 -18 15 -25 15 -7 0 -18 -7 -25 -15z m40 -20 c0 -8 -7
-15 -15 -15 -8 0 -15 7 -15 15 0 8 7 15 15 15 8 0 15 -7 15 -15z m110 0 c0 -8
-7 -15 -15 -15 -8 0 -15 7 -15 15 0 8 7 15 15 15 8 0 15 -7 15 -15z m-142 -27
c10 -10 17 -10 32 0 25 15 63 15 78 0 10 -10 17 -10 32 0 26 16 45 15 64 -4
24 -23 24 -325 0 -348 -23 -23 -245 -23 -268 0 -24 23 -24 325 0 348 19 19 45
21 62 4z"/>
<path d="M173 391 c-3 -11 -15 -21 -27 -23 -19 -3 -21 -9 -21 -68 l0 -65 125
0 125 0 0 65 c0 59 -2 65 -21 68 -12 2 -24 12 -27 23 -4 17 -14 19 -77 19 -63
0 -73 -2 -77 -19z m137 -11 c0 -6 -27 -10 -60 -10 -33 0 -60 4 -60 10 0 6 27
10 60 10 33 0 60 -4 60 -10z m50 -80 l0 -50 -110 0 -110 0 0 50 0 50 110 0
110 0 0 -50z"/>
<path d="M130 165 c-15 -18 -10 -45 13 -59 34 -22 73 27 47 59 -16 19 -44 19
-60 0z m46 -16 c10 -17 -13 -36 -27 -22 -12 12 -4 33 11 33 5 0 12 -5 16 -11z"/>
<path d="M310 165 c-26 -32 13 -81 48 -59 22 14 27 41 12 59 -16 19 -44 19
-60 0z m46 -16 c10 -17 -13 -36 -27 -22 -12 12 -4 33 11 33 5 0 12 -5 16 -11z"/>
</g>
</svg>
