<?xml version="1.0" standalone="no"?>
<!DOCTYPE svg PUBLIC "-//W3C//DTD SVG 20010904//EN"
 "http://www.w3.org/TR/2001/REC-SVG-20010904/DTD/svg10.dtd">
<svg version="1.0" xmlns="http://www.w3.org/2000/svg"
 width="48.000000pt" height="48.000000pt" viewBox="0 0 48.000000 48.000000"
 preserveAspectRatio="xMidYMid meet">

<g transform="translate(0.000000,48.000000) scale(0.100000,-0.100000)"
fill="#000000" stroke="none">
<path d="M140 438 c-19 -5 -45 -19 -57 -31 -22 -19 -23 -28 -23 -159 0 -109 4
-146 16 -170 13 -25 14 -36 5 -50 -13 -22 -14 -28 -2 -28 5 0 19 16 31 35 35
56 47 44 23 -22 -9 -24 14 -13 25 12 11 23 17 25 82 25 65 0 71 -2 82 -25 6
-14 15 -25 20 -25 8 0 5 19 -9 58 -11 26 17 10 37 -23 12 -19 26 -35 31 -35
12 0 11 6 -2 28 -9 14 -8 25 5 50 12 24 16 61 16 170 0 131 -1 140 -22 159
-43 40 -173 55 -258 31z m160 -18 c0 -6 -27 -10 -60 -10 -33 0 -60 4 -60 10 0
6 27 10 60 10 33 0 60 -4 60 -10z m-100 -30 c30 0 30 0 30 -60 l0 -60 -75 0
-75 0 0 53 c0 39 5 58 18 69 23 22 55 27 65 11 4 -7 21 -13 37 -13z m183 2
c12 -11 17 -30 17 -69 l0 -53 -75 0 -75 0 0 60 0 60 30 0 c17 0 33 6 36 14 6
16 41 10 67 -12z m17 -203 c0 -100 2 -99 -160 -99 -162 0 -160 -1 -160 99 l0
61 160 0 160 0 0 -61z"/>
<path d="M124 166 c-8 -21 3 -36 27 -36 15 0 20 6 17 22 -4 27 -35 37 -44 14z"/>
<path d="M317 174 c-4 -4 -7 -16 -7 -26 0 -14 6 -19 23 -16 14 2 22 10 22 23
0 20 -25 32 -38 19z"/>
</g>
</svg>
