<?xml version="1.0" standalone="no"?>
<!DOCTYPE svg PUBLIC "-//W3C//DTD SVG 20010904//EN"
 "http://www.w3.org/TR/2001/REC-SVG-20010904/DTD/svg10.dtd">
<svg version="1.0" xmlns="http://www.w3.org/2000/svg"
 width="50.000000pt" height="50.000000pt" viewBox="0 0 50.000000 50.000000"
 preserveAspectRatio="xMidYMid meet">

<g transform="translate(0.000000,50.000000) scale(0.100000,-0.100000)"
fill="#000000" stroke="none">
<path d="M206 435 c-169 -48 -166 -44 -166 -220 0 -125 2 -144 18 -158 16 -15
45 -17 194 -17 221 0 208 -10 208 163 0 175 10 167 -207 167 -100 0 -162 4
-153 9 16 10 233 71 250 71 5 0 10 -13 10 -30 0 -16 5 -30 10 -30 14 0 12 54
-2 68 -16 16 -26 15 -162 -23z m222 -97 c17 -17 17 -249 0 -266 -17 -17 -339
-17 -356 0 -17 17 -17 249 0 266 17 17 339 17 356 0z"/>
<path d="M364 215 c-4 -9 -2 -21 4 -27 15 -15 44 -1 40 19 -4 23 -36 29 -44 8z"/>
</g>
</svg>
