<?xml version="1.0" standalone="no"?>
<!DOCTYPE svg PUBLIC "-//W3C//DTD SVG 20010904//EN"
 "http://www.w3.org/TR/2001/REC-SVG-20010904/DTD/svg10.dtd">
<svg version="1.0" xmlns="http://www.w3.org/2000/svg"
 width="48.000000pt" height="48.000000pt" viewBox="0 0 48.000000 48.000000"
 preserveAspectRatio="xMidYMid meet">

<g transform="translate(0.000000,48.000000) scale(0.100000,-0.100000)"
fill="#000000" stroke="none">
<path d="M135 416 c-69 -30 -108 -113 -88 -186 5 -21 6 -49 0 -69 -11 -45 1
-55 47 -43 33 10 39 8 77 -23 46 -39 97 -52 149 -38 21 5 49 6 69 0 44 -11 55
1 43 44 -5 19 -5 43 -1 54 26 68 -2 140 -78 198 -103 79 -150 93 -218 63z
m144 -44 c14 -10 33 -38 41 -60 13 -37 13 -47 0 -84 -20 -57 -58 -83 -118 -81
-133 4 -122 1 -122 36 0 18 -2 50 -5 72 -16 110 113 184 204 117z m117 -104
c12 -22 14 -43 9 -72 -4 -23 -7 -56 -6 -74 1 -30 -1 -33 -26 -31 -16 2 -45 -1
-65 -5 -23 -5 -50 -3 -75 5 l-37 12 43 13 c75 22 121 83 121 159 0 41 12 39
36 -7z"/>
</g>
</svg>
