<svg width="35" height="35" viewBox="0 0 35 35" fill="none" xmlns="http://www.w3.org/2000/svg">
<mask id="mask0_271_114" style="mask-type:alpha" maskUnits="userSpaceOnUse" x="0" y="0" width="35" height="35">
<rect width="35" height="35" fill="#D9D9D9"/>
</mask>
<g mask="url(#mask0_271_114)">
<path d="M8.74992 30.625V29.1666L10.9374 27.7083C9.50339 27.7083 8.29419 27.2161 7.30981 26.2317C6.32544 25.2474 5.83325 24.0382 5.83325 22.6041V8.74996C5.83325 6.7326 6.76902 5.25604 8.64054 4.32027C10.5121 3.38451 13.4652 2.91663 17.4999 2.91663C21.6805 2.91663 24.6701 3.36628 26.4687 4.26558C28.2673 5.16489 29.1666 6.65968 29.1666 8.74996V22.6041C29.1666 24.0382 28.6744 25.2474 27.69 26.2317C26.7056 27.2161 25.4964 27.7083 24.0624 27.7083L26.2499 29.1666V30.625H8.74992ZM8.74992 14.5833H16.0416V10.2083H8.74992V14.5833ZM18.9583 14.5833H26.2499V10.2083H18.9583V14.5833ZM12.3958 23.3333C13.0034 23.3333 13.5199 23.1206 13.9452 22.6953C14.3706 22.2699 14.5833 21.7534 14.5833 21.1458C14.5833 20.5382 14.3706 20.0217 13.9452 19.5963C13.5199 19.171 13.0034 18.9583 12.3958 18.9583C11.7881 18.9583 11.2716 19.171 10.8463 19.5963C10.4209 20.0217 10.2083 20.5382 10.2083 21.1458C10.2083 21.7534 10.4209 22.2699 10.8463 22.6953C11.2716 23.1206 11.7881 23.3333 12.3958 23.3333ZM22.6041 23.3333C23.2117 23.3333 23.7282 23.1206 24.1536 22.6953C24.5789 22.2699 24.7916 21.7534 24.7916 21.1458C24.7916 20.5382 24.5789 20.0217 24.1536 19.5963C23.7282 19.171 23.2117 18.9583 22.6041 18.9583C21.9964 18.9583 21.48 19.171 21.0546 19.5963C20.6293 20.0217 20.4166 20.5382 20.4166 21.1458C20.4166 21.7534 20.6293 22.2699 21.0546 22.6953C21.48 23.1206 21.9964 23.3333 22.6041 23.3333Z" fill="#1C1B1F"/>
</g>
</svg>
