<svg width="35" height="35" viewBox="0 0 35 35" fill="none" xmlns="http://www.w3.org/2000/svg">
<mask id="mask0_271_117" style="mask-type:alpha" maskUnits="userSpaceOnUse" x="0" y="0" width="35" height="35">
<rect width="35" height="35" rx="2" fill="#D9D9D9"/>
</mask>
<g mask="url(#mask0_271_117)">
<path d="M6.375 16.0417C5.27043 16.0417 4.375 15.1462 4.375 14.0417V6.375C4.375 5.27043 5.27043 4.375 6.375 4.375H14.0417C15.1462 4.375 16.0417 5.27043 16.0417 6.375V14.0417C16.0417 15.1462 15.1462 16.0417 14.0417 16.0417H6.375ZM7.29167 11.125C7.29167 12.2296 8.1871 13.125 9.29167 13.125H11.125C12.2296 13.125 13.125 12.2296 13.125 11.125V9.29167C13.125 8.1871 12.2296 7.29167 11.125 7.29167H9.29167C8.1871 7.29167 7.29167 8.1871 7.29167 9.29167V11.125ZM6.375 30.625C5.27043 30.625 4.375 29.7296 4.375 28.625V20.9583C4.375 19.8538 5.27043 18.9583 6.375 18.9583H14.0417C15.1462 18.9583 16.0417 19.8538 16.0417 20.9583V28.625C16.0417 29.7296 15.1462 30.625 14.0417 30.625H6.375ZM7.29167 25.7083C7.29167 26.8129 8.1871 27.7083 9.29167 27.7083H11.125C12.2296 27.7083 13.125 26.8129 13.125 25.7083V23.875C13.125 22.7704 12.2296 21.875 11.125 21.875H9.29167C8.1871 21.875 7.29167 22.7704 7.29167 23.875V25.7083ZM20.9583 16.0417C19.8538 16.0417 18.9583 15.1462 18.9583 14.0417V6.375C18.9583 5.27043 19.8538 4.375 20.9583 4.375H28.625C29.7296 4.375 30.625 5.27043 30.625 6.375V14.0417C30.625 15.1462 29.7296 16.0417 28.625 16.0417H20.9583ZM21.875 11.125C21.875 12.2296 22.7704 13.125 23.875 13.125H25.7083C26.8129 13.125 27.7083 12.2296 27.7083 11.125V9.29167C27.7083 8.1871 26.8129 7.29167 25.7083 7.29167H23.875C22.7704 7.29167 21.875 8.1871 21.875 9.29167V11.125ZM29.1667 30.625C28.3613 30.625 27.7083 29.9721 27.7083 29.1667V27.7083H29.1667C29.9721 27.7083 30.625 28.3613 30.625 29.1667V29.1667C30.625 29.9721 29.9721 30.625 29.1667 30.625V30.625ZM20.4167 21.875C19.6113 21.875 18.9583 21.2221 18.9583 20.4167V20.4167C18.9583 19.6113 19.6113 18.9583 20.4167 18.9583V18.9583C21.2221 18.9583 21.875 19.6113 21.875 20.4167V21.875H20.4167ZM21.875 24.7917V21.875H24.7917V24.7917H21.875ZM20.4167 27.7083C19.6113 27.7083 18.9583 27.0554 18.9583 26.25V26.25C18.9583 25.4446 19.6113 24.7917 20.4167 24.7917H21.875V27.7083H20.4167ZM23.3333 30.625C22.5279 30.625 21.875 29.9721 21.875 29.1667V27.7083H24.7917V29.1667C24.7917 29.9721 24.1387 30.625 23.3333 30.625V30.625ZM24.7917 27.7083V24.7917H27.7083V27.7083H24.7917ZM24.7917 21.875V20.4167C24.7917 19.6113 25.4446 18.9583 26.25 18.9583V18.9583C27.0554 18.9583 27.7083 19.6113 27.7083 20.4167V21.875H24.7917ZM27.7083 24.7917V21.875H29.1667C29.9721 21.875 30.625 22.5279 30.625 23.3333V23.3333C30.625 24.1387 29.9721 24.7917 29.1667 24.7917H27.7083Z" fill="#1C1B1F"/>
</g>
</svg>
