<?xml version="1.0" standalone="no"?>
<!DOCTYPE svg PUBLIC "-//W3C//DTD SVG 20010904//EN"
 "http://www.w3.org/TR/2001/REC-SVG-20010904/DTD/svg10.dtd">
<svg version="1.0" xmlns="http://www.w3.org/2000/svg"
 width="1024.000000pt" height="1024.000000pt" viewBox="0 0 1024.000000 1024.000000"
 preserveAspectRatio="xMidYMid meet">

<g transform="translate(0.000000,1024.000000) scale(0.100000,-0.100000)"
fill="#000000" stroke="none">
<path d="M4530 8770 c-895 -48 -1531 -185 -1868 -403 -164 -106 -315 -290
-369 -450 l-28 -82 -3 -1875 c-3 -2058 -6 -1943 58 -2109 66 -172 220 -353
386 -457 86 -53 241 -110 326 -120 32 -4 58 -8 58 -10 0 -3 -240 -341 -533
-752 -672 -940 -627 -874 -627 -923 0 -109 115 -176 207 -119 21 12 134 162
330 439 l298 420 2357 1 2357 0 300 -423 c329 -464 329 -464 417 -454 39 4 55
12 81 41 29 31 33 43 33 90 0 61 46 -8 -561 841 -342 477 -589 830 -589 839 0
3 16 6 35 6 90 0 277 69 380 140 168 116 308 304 376 505 l24 70 3 1900 c3
2107 7 1967 -63 2113 -217 454 -817 672 -2095 762 -195 14 -1084 21 -1290 10z
m1080 -290 c870 -38 1505 -162 1816 -356 89 -55 192 -163 230 -240 l29 -59 3
-1870 c2 -1402 0 -1884 -9 -1925 -36 -172 -165 -332 -336 -419 -131 -65 26
-61 -2213 -61 -2271 0 -2094 -5 -2244 72 -144 75 -258 209 -312 368 -18 53
-19 124 -19 1940 l0 1885 31 65 c81 171 287 310 600 405 315 95 833 169 1374
194 249 12 785 12 1050 1z m1373 -5447 c85 -126 184 -271 220 -323 l67 -95
-1075 -3 c-591 -1 -1558 -1 -2149 0 l-1073 3 174 250 c95 138 195 283 221 322
l47 73 1707 0 1707 0 154 -227z"/>
<path d="M3012 7630 c-18 -4 -45 -18 -59 -31 -55 -52 -53 -17 -53 -835 l0
-756 22 -39 c14 -25 37 -46 63 -59 41 -20 57 -20 976 -18 l934 3 34 24 c63 45
61 15 61 848 0 721 -1 760 -19 793 -10 19 -34 44 -52 55 -33 20 -53 20 -954
22 -506 0 -935 -2 -953 -7z m1688 -865 l0 -585 -755 0 -755 0 0 585 0 585 755
0 755 0 0 -585z"/>
<path d="M5362 7630 c-44 -10 -90 -55 -103 -100 -6 -23 -9 -293 -7 -787 3
-741 3 -752 24 -779 11 -15 33 -37 48 -48 27 -21 34 -21 975 -21 896 0 948 1
974 18 16 10 37 32 47 50 19 31 20 56 20 802 0 746 -1 771 -20 802 -10 18 -34
40 -52 50 -31 17 -88 18 -953 20 -506 0 -935 -2 -953 -7z m1688 -865 l0 -585
-755 0 -755 0 0 585 0 585 755 0 755 0 0 -585z"/>
<path d="M3530 5444 c-30 -8 -93 -33 -139 -55 -150 -74 -282 -230 -334 -394
-32 -102 -31 -280 1 -385 32 -103 93 -201 172 -279 126 -125 258 -182 436
-189 133 -5 202 10 324 70 225 110 372 368 356 623 -17 289 -218 535 -492 605
-92 24 -242 26 -324 4z m311 -301 c78 -37 147 -104 184 -181 40 -81 47 -211
15 -295 -117 -312 -549 -323 -693 -19 -28 59 -32 77 -32 153 0 78 3 91 38 161
53 107 140 182 244 208 71 17 174 6 244 -27z"/>
<path d="M6382 5440 c-179 -48 -333 -176 -417 -345 -48 -99 -65 -173 -65 -290
0 -122 17 -192 72 -305 81 -165 251 -299 438 -346 90 -23 261 -15 350 15 204
70 358 228 427 436 36 111 38 266 4 375 -63 206 -231 382 -431 451 -94 32
-277 37 -378 9z m331 -298 c77 -38 148 -111 185 -190 24 -50 27 -69 27 -157 0
-89 -3 -106 -28 -157 -140 -286 -550 -280 -685 10 -23 49 -27 70 -27 152 0 82
4 103 27 152 47 100 137 180 241 214 26 8 72 13 119 11 62 -3 89 -10 141 -35z"/>
</g>
</svg>
